<?xml version="1.0"?><svg width="640" height="480" xmlns="http://www.w3.org/2000/svg">
 <title>shield-purple</title>
 <g>
  <title>Layer 1</title>
  <path d="m277.126404,19.999981l1.643616,0l7.080017,3.587158q7.080017,3.587101 9.355682,4.70038q2.275726,1.113241 15.48764,7.236082q13.211853,6.122898 13.654327,6.184708q0.442505,0.061859 7.016754,2.90686q6.574371,2.844971 10.11438,4.205559q3.539978,1.360641 10.240784,3.710854q6.700684,2.350166 8.470703,2.968697q1.77002,0.61845 4.425049,1.484341q2.654968,0.865841 6.827148,2.102779q4.172119,1.236942 10.620056,2.968681q6.447815,1.731709 12.516418,3.092342q6.068665,1.360619 7.838623,1.73172q1.769958,0.371086 11.252258,2.102837q9.482117,1.731689 11.884247,2.102783q2.402191,0.371056 11.757843,1.855385q9.355865,1.484337 9.482178,1.484337q0.126465,0 9.102997,1.73172q8.97644,1.731758 9.039673,1.793579l0.063232,0.061844l-0.379303,18.430466q-0.379333,18.430458 -1.896484,47.622307q-1.51709,29.191864 -2.402161,40.819153q-0.884949,11.627258 -2.022827,19.914795q-1.137817,8.287506 -2.654907,15.709198q-1.517303,7.421646 -3.287201,14.96698q-1.770111,7.54538 -3.160797,13.235275q-1.390747,5.689957 -3.28717,12.245743q-1.896423,6.555817 -2.275696,7.916504q-0.379272,1.360596 -1.137817,3.463409q-0.758636,2.102814 -1.77005,5.19516q-1.011444,3.092346 -3.160736,8.905975q-2.149353,5.813629 -3.540009,9.2771q-1.390686,3.46344 -3.413605,8.287506q-2.022827,4.824066 -5.183594,11.627258q-3.160736,6.803192 -3.792847,7.916412q-0.632141,1.113251 -4.614685,8.101959q-3.982513,6.98877 -4.80426,8.287598q-0.821808,1.298767 -3.919281,6.555786q-3.097565,5.256989 -4.045746,6.679474q-0.948212,1.422546 -2.907867,4.453003q-1.959625,3.030518 -3.160736,4.700378q-1.20108,1.669891 -2.781494,3.958252q-1.580322,2.28833 -3.034271,4.205597q-1.453949,1.917236 -2.275726,3.216064q-0.821808,1.298798 -2.402161,3.339752q-1.580322,2.040955 -3.034302,4.081909q-1.453918,2.040985 -3.160736,4.205566q-1.706757,2.164673 -2.907806,3.710815q-1.20105,1.546234 -5.120422,5.875549q-3.919312,4.329224 -9.229309,9.895538q-5.309998,5.566193 -9.355774,9.524414q-4.045654,3.958191 -5.37323,5.009644q-1.327454,1.051422 -6.195007,5.318817q-4.867523,4.267517 -5.942169,5.19519q-1.074615,0.927704 -5.310028,4.576691q-4.235352,3.648987 -5.562866,4.700378q-1.327484,1.051422 -3.034241,2.473877q-1.706848,1.422485 -4.74115,3.896362q-3.034302,2.473907 -4.614685,3.649017q-1.580261,1.17514 -3.034241,2.102814q-1.453979,0.927673 -5.310059,3.216064q-3.856018,2.28833 -5.057129,3.092316q-1.201111,0.804047 -2.718262,1.669891q-1.517151,0.865845 -3.160706,1.979065q-1.643585,1.113281 -2.4021,1.608063q-0.758575,0.494781 -3.287231,1.73172q-2.528564,1.236938 -6.068604,2.844971q-3.539948,1.608063 -4.930725,2.102783l-1.390686,0.494812l-1.517212,-0.371063q-1.51709,-0.371124 -3.287079,-1.236969q-1.77005,-0.865845 -5.942139,-2.968689q-4.17218,-2.102783 -4.804413,-2.597565q-0.63208,-0.494781 -3.223877,-2.164703q-2.591766,-1.669769 -3.919281,-2.473816q-1.327545,-0.803986 -5.183563,-3.092346q-3.85611,-2.288361 -5.310059,-3.216095q-1.453918,-0.927673 -3.034302,-2.102753q-1.580353,-1.17514 -3.60321,-2.783173q-2.022858,-1.608002 -5.37323,-4.391113q-3.350403,-2.783173 -5.815765,-4.824097q-2.465332,-2.041016 -7.206451,-6.184692q-4.741089,-4.143799 -6.068604,-5.19516q-1.327499,-1.051453 -5.81572,-4.947784q-4.488235,-3.896393 -4.993942,-4.391174q-0.505722,-0.494781 -4.488251,-4.391144q-3.982498,-3.896332 -5.562897,-5.566254q-1.580353,-1.66983 -6.953583,-7.421661q-5.37323,-5.75177 -6.447876,-7.050568q-1.074646,-1.298798 -3.160736,-3.834503q-2.08606,-2.535767 -3.28714,-4.081909q-1.20108,-1.546143 -2.402145,-3.216125q-1.20108,-1.669861 -2.528595,-3.463379q-1.327469,-1.79361 -2.40213,-3.216064q-1.074677,-1.422485 -1.833221,-2.535736q-0.75856,-1.113251 -2.086105,-2.90683q-1.327484,-1.793549 -2.275696,-3.216064q-0.948227,-1.422485 -2.528595,-3.710785q-1.580353,-2.288361 -2.402145,-3.587158q-0.821793,-1.298767 -2.655014,-4.081909q-1.833221,-2.783112 -2.402161,-3.834564q-0.568924,-1.051361 -3.160721,-5.318848q-2.591766,-4.267395 -3.413574,-5.566193q-0.821793,-1.298828 -4.108948,-7.112427q-3.28717,-5.81366 -4.930756,-8.782288q-1.643555,-2.968689 -2.907852,-5.566315q-1.264297,-2.597565 -3.540016,-7.792694q-2.275711,-5.19519 -2.275711,-5.318878q0,-0.123718 -2.275734,-5.689941q-2.275703,-5.566284 -3.540016,-8.782257q-1.264305,-3.216095 -3.540009,-9.771851q-2.275711,-6.555817 -4.551445,-13.977478q-2.275764,-7.421661 -5.057159,-18.059387q-2.781456,-10.637695 -3.919281,-15.832886q-1.137886,-5.195145 -3.160744,-15.090698q-2.022865,-9.895523 -2.402161,-12.9879q-0.379265,-3.092361 -1.6436,-18.925217q-1.264244,-15.832916 -1.643517,-23.873016q-0.379318,-8.040131 -0.885033,-17.069824q-0.505722,-9.029663 -1.390732,-29.562965q-0.88501,-20.533241 -0.88501,-29.068161l0,-8.53495l0.821793,-0.43293q0.821808,-0.432899 4.488243,-1.051346q3.666435,-0.6185 10.114326,-1.608055q6.447884,-0.98954 19.596504,-3.216049q13.148621,-2.226479 18.837921,-3.216026q5.689301,-0.989555 15.045059,-3.092415q9.355759,-2.102779 16.182922,-3.958168q6.827179,-1.855431 11.757889,-3.463428q4.93074,-1.60804 7.712189,-2.473911q2.781403,-0.865902 5.310013,-1.731709q2.52858,-0.86586 10.114319,-3.71085q7.585739,-2.844952 14.223297,-5.751801q6.637512,-2.906792 7.080002,-2.968643q0.442459,-0.061859 6.384659,-2.783127q5.942154,-2.72131 10.74646,-4.94775q4.804321,-2.226511 9.482224,-4.453022q4.677887,-2.226509 11.63147,-5.81362l6.953644,-3.587149l1.643494,0z" id="path2" stroke-width="2px" stroke="#000000" fill-rule="evenodd" fill="#000000"/>
  <path id="svg_1" d="m277.120972,29.83008l1.572571,0l6.774078,3.40431q6.774078,3.40427 8.951508,4.460789q2.177368,1.056511 14.818298,6.867271q12.640991,5.81081 13.064392,5.86948q0.423401,0.058689 6.713593,2.758671q6.290283,2.69997 9.677277,3.991207q3.387024,1.29129 9.79834,3.521702q6.411133,2.230389 8.104645,2.817379q1.693573,0.586929 4.233795,1.408691q2.540375,0.821701 6.532166,1.995598q3.991882,1.173904 10.161133,2.817352q6.169312,1.643433 11.975708,2.934723q5.806458,1.291275 7.499908,1.643456q1.693512,0.35218 10.765961,1.995674q9.07251,1.643417 11.370789,1.99559q2.29834,0.35215 11.249847,1.760818q8.951569,1.408691 9.072418,1.408691q0.120972,0 8.709656,1.643417q8.588531,1.643509 8.648987,1.702179l0.060516,0.058693l-0.362885,17.491035q-0.362915,17.491058 -1.814484,45.194969q-1.45163,27.703918 -2.29834,38.738556q-0.846771,11.034607 -1.935516,18.899734q-1.088654,7.865067 -2.540131,14.908463q-1.451782,7.043365 -3.145294,14.204132q-1.693542,7.160706 -3.02417,12.560669q-1.330566,5.399933 -3.145081,11.621552q-1.814453,6.221619 -2.177368,7.51297q-0.362793,1.291229 -1.088654,3.286896q-0.725861,1.995605 -1.693451,4.930359q-0.967773,2.934692 -3.024292,8.451996q-2.056458,5.517334 -3.386963,8.80426q-1.330627,3.286896 -3.266083,7.865082q-1.935486,4.578186 -4.959686,11.034607q-3.024109,6.456421 -3.628967,7.512909q-0.604858,1.056519 -4.415283,7.688995q-3.810364,6.632568 -4.596741,7.865143q-0.786224,1.232574 -3.749817,6.221649q-2.963715,4.989044 -3.870972,6.338989q-0.907227,1.350098 -2.782196,4.226074q-1.874969,2.876038 -3.02417,4.460785q-1.149139,1.584778 -2.661285,3.75647q-1.512085,2.171722 -2.903198,3.991241q-1.391113,1.81955 -2.177368,3.052155q-0.786194,1.232574 -2.298279,3.169495q-1.512115,1.93692 -2.903229,3.873871q-1.391113,1.936951 -3.024139,3.991211q-1.633057,2.054352 -2.782227,3.521698q-1.149139,1.467407 -4.89917,5.57605q-3.749969,4.108582 -8.830444,9.391144q-5.080658,5.282501 -8.951599,9.039001q-3.87088,3.756439 -5.141113,4.754242q-1.27002,0.997833 -5.927277,5.047699q-4.657196,4.049988 -5.685425,4.93042q-1.028229,0.880432 -5.080536,4.343414q-4.052338,3.462982 -5.322479,4.460815q-1.270142,0.997803 -2.903168,2.347748q-1.633087,1.349976 -4.536255,3.697784q-2.903137,2.347809 -4.415283,3.462982q-1.511993,1.115234 -2.903198,1.995667q-1.391144,0.880371 -5.080566,3.052124q-3.689453,2.171692 -4.838654,2.934753q-1.149139,0.76297 -2.600769,1.584717q-1.451508,0.821716 -3.024109,1.878235q-1.572601,1.056488 -2.298309,1.526093q-0.725769,0.469543 -3.145203,1.643433q-2.419342,1.173859 -5.806396,2.699951q-3.386963,1.526093 -4.717651,1.995605l-1.330627,0.469543l-1.45163,-0.352142q-1.451508,-0.352173 -3.14505,-1.173859q-1.693542,-0.821747 -5.685364,-2.817383q-3.991882,-1.995605 -4.596802,-2.465149q-0.604706,-0.469604 -3.084503,-2.054382q-2.479858,-1.584686 -3.750046,-2.347748q-1.270065,-0.763031 -4.959579,-2.934723q-3.689453,-2.171692 -5.080658,-3.052155q-1.391022,-0.880402 -2.903152,-1.995605q-1.512039,-1.115265 -3.447464,-2.641266q-1.935486,-1.526062 -5.141113,-4.167328q-3.205566,-2.641266 -5.564392,-4.578217q-2.358826,-1.936951 -6.89505,-5.869446q-4.536285,-3.932587 -5.806427,-4.930389q-1.270142,-0.997803 -5.564468,-4.695587q-4.29425,-3.697723 -4.778168,-4.167358q-0.483826,-0.469482 -4.294235,-4.167267q-3.810394,-3.697784 -5.322556,-5.282593q-1.512009,-1.584686 -6.653152,-7.043365q-5.140991,-5.458588 -6.169235,-6.691193q-1.028152,-1.232513 -3.024185,-3.639008q-1.995895,-2.406525 -3.14505,-3.873871q-1.149155,-1.467346 -2.298325,-3.052155q-1.149231,-1.584747 -2.419342,-3.286896q-1.270172,-1.702148 -2.298416,-3.052124q-1.028229,-1.349976 -1.753952,-2.406464q-0.725784,-1.056519 -1.995956,-2.758667q-1.270157,-1.702148 -2.177399,-3.052124q-0.907242,-1.350037 -2.419312,-3.521698q-1.512115,-2.171722 -2.29834,-3.404327q-0.78624,-1.232544 -2.540344,-3.87384q-1.753998,-2.641235 -2.298309,-3.639069q-0.544342,-0.997833 -3.02417,-5.04776q-2.479767,-4.049896 -3.266098,-5.282501q-0.786301,-1.232635 -3.931381,-6.749908q-3.145157,-5.517334 -4.717651,-8.334625q-1.572586,-2.817383 -2.782242,-5.282593q-1.209656,-2.465149 -3.387085,-7.395538q-2.177338,-4.930328 -2.177338,-5.047729q0,-0.117401 -2.177399,-5.399933q-2.177399,-5.282532 -3.38707,-8.334595q-1.209656,-3.052185 -3.38707,-9.273773q-2.177338,-6.221649 -4.354759,-13.265045q-2.177406,-7.043335 -4.838646,-17.13887q-2.661224,-10.095505 -3.749916,-15.025864q-1.08873,-4.930359 -3.02417,-14.321533q-1.935471,-9.391159 -2.298317,-12.325897q-0.362923,-2.934723 -1.572647,-17.960602q-1.209579,-15.025864 -1.57251,-22.656158q-0.3629,-7.630295 -0.846741,-16.199783q-0.483902,-8.569412 -1.330666,-28.056099q-0.846741,-19.48661 -0.846741,-27.58651l0,-8.099922l0.786247,-0.410858q0.786324,-0.410851 4.294304,-0.997772q3.508072,-0.58699 9.677315,-1.526085q6.16925,-0.93911 18.74971,-3.052116q12.58046,-2.113007 18.023941,-3.052109q5.443497,-0.93911 14.394989,-2.934784q8.951538,-1.995605 15.483643,-3.756416q6.532211,-1.760872 11.249847,-3.286911q4.717697,-1.526047 7.378891,-2.34782q2.66124,-0.821751 5.080597,-1.643429q2.419327,-0.821732 9.677307,-3.521702q7.257965,-2.69994 13.608734,-5.458618q6.350632,-2.75864 6.774078,-2.817341q0.42337,-0.058689 6.108704,-2.64127q5.685516,-2.582592 10.28212,-4.69556q4.596756,-2.113029 9.072525,-4.22604q4.475769,-2.113018 11.128906,-5.5173l6.653137,-3.40431l1.57251,0z" stroke-width="2px" stroke="#000000" fill-rule="evenodd" fill="#000000" stroke-dasharray="null" stroke-linecap="null" stroke-linejoin="null"/>
 </g>
</svg>